<svg width="49" height="26" viewBox="0 0 49 26" fill="none" xmlns="http://www.w3.org/2000/svg">
    <g filter="url(#filter0_d_328_23579)">
        <path
            d="M35.9932 11.5V7.44785C35.9932 3.8868 38.88 1 42.441 1H48.3889C48.665 1 48.8889 0.776142 48.8889 0.5C48.8889 0.223858 48.665 0 48.3889 0H0.5C0.223857 0 0 0.223858 0 0.5C0 0.776142 0.223857 1 0.5 1H6.32313C9.8153 1 12.6463 3.83096 12.6463 7.32313V11.5C12.6463 17.299 17.3473 22 23.1463 22H25.4932C31.2922 22 35.9932 17.299 35.9932 11.5Z"
            fill="#F3F3F3" />
        <circle cx="24.4445" cy="10" r="7.5" fill="white" stroke="#D2D3D6" />
        <circle cx="24.4445" cy="10" r="4" fill="#00BA09" />
    </g>
    <defs>
        <filter id="filter0_d_328_23579" x="0" y="0" width="48.8889" height="26" filterUnits="userSpaceOnUse"
            color-interpolation-filters="sRGB">
            <feFlood flood-opacity="0" result="BackgroundImageFix" />
            <feColorMatrix in="SourceAlpha" type="matrix" values="0 0 0 0 0 0 0 0 0 0 0 0 0 0 0 0 0 0 127 0"
                result="hardAlpha" />
            <feOffset dy="4" />
            <feComposite in2="hardAlpha" operator="out" />
            <feColorMatrix type="matrix" values="0 0 0 0 0.2 0 0 0 0 0.341176 0 0 0 0 0.639216 0 0 0 1 0" />
            <feBlend mode="normal" in2="BackgroundImageFix" result="effect1_dropShadow_328_23579" />
            <feBlend mode="normal" in="SourceGraphic" in2="effect1_dropShadow_328_23579" result="shape" />
        </filter>
    </defs>
</svg>